# xmcd
#
# Track frame offsets: 
#        150
#        14987
#        40542
#        59375
#        72675
#        90627
#        108595
#        119125
#        135522
#        155590
#        173055
#        189602
#        210492
#        223787
#
# Disc length: 3322 seconds
#
# Revision: 0
# Processed by: cddbd v1.5.2PL0 Copyright (c) Steve Scherf et al.
# Submitted via: ExactAudioCopy v1.1
#
DISCID=d70cf80e
DTITLE=Bob Bingham - LIVE at The Pheasant
DYEAR=1999
DGENRE=Blues-Acoustic
TTITLE0=Joliet Blues
TTITLE1=Goin' To Louisiana
TTITLE2=Coolin' Board Blues
TTITLE3=El Capitan
TTITLE4=Ramblin' On My Mind
TTITLE5=Gettin' All Wet
TTITLE6=Dr. Jazz
TTITLE7=Ticket Agent
TTITLE8=Ride 'Em On Down
TTITLE9=I-94 Blues
TTITLE10=Blues Around Midnight
TTITLE11=Nightime Is The Right Time
TTITLE12=Big Road Blues
TTITLE13=Baby Please Don't Go
EXTD=
EXTT0=
EXTT1=
EXTT2=
EXTT3=
EXTT4=
EXTT5=
EXTT6=
EXTT7=
EXTT8=
EXTT9=
EXTT10=
EXTT11=
EXTT12=
EXTT13=
PLAYORDER=
